<svg width="24" height="24" viewBox="0 0 24 24" fill="none" xmlns="http://www.w3.org/2000/svg">
<path d="M9.98141 21.2505H14.0186M18.9985 14.9805C18.6973 14.5038 18.5375 13.9529 18.5372 13.3905V9.22651C18.5372 7.5087 17.8485 5.86125 16.6225 4.64658C15.3965 3.43191 13.7338 2.74951 12 2.74951C10.2662 2.74951 8.60345 3.43191 7.37749 4.64658C6.15152 5.86125 5.46278 7.5087 5.46278 9.22651V13.3885C5.46286 13.9515 5.30302 14.5032 5.00153 14.9805L3.90342 16.7205C3.80793 16.8719 3.75508 17.0458 3.75035 17.2243C3.74562 17.4027 3.78919 17.5792 3.87652 17.7353C3.96386 17.8914 4.09179 18.0215 4.24702 18.1121C4.40225 18.2027 4.57914 18.2505 4.7593 18.2505H19.2407C19.4209 18.2505 19.5977 18.2027 19.753 18.1121C19.9082 18.0215 20.0361 17.8914 20.1235 17.7353C20.2108 17.5792 20.2544 17.4027 20.2497 17.2243C20.2449 17.0458 20.1921 16.8719 20.0966 16.7205L18.9985 14.9805Z" stroke="#212123" stroke-width="1.5" stroke-linecap="round" stroke-linejoin="round"/>
</svg>
