<svg width="16" height="16" viewBox="0 0 16 16" fill="none" xmlns="http://www.w3.org/2000/svg">
<path d="M2.16675 6.16683H13.8334M4.90741 3.16683V1.8335M11.0741 3.16683V1.8335M11.5001 3.16683H4.50008C3.88124 3.16683 3.28775 3.41266 2.85017 3.85025C2.41258 4.28783 2.16675 4.88132 2.16675 5.50016V11.8335C2.16675 12.4523 2.41258 13.0458 2.85017 13.4834C3.28775 13.921 3.88124 14.1668 4.50008 14.1668H11.5001C12.1189 14.1668 12.7124 13.921 13.15 13.4834C13.5876 13.0458 13.8334 12.4523 13.8334 11.8335V5.50016C13.8334 4.88132 13.5876 4.28783 13.15 3.85025C12.7124 3.41266 12.1189 3.16683 11.5001 3.16683Z" stroke="#616164" stroke-linecap="round" stroke-linejoin="round"/>
</svg>
