<svg width="24" height="24" viewBox="0 0 24 24" fill="none" xmlns="http://www.w3.org/2000/svg">
<path d="M9.45912 15.0237L5.98911 11.5537C5.80214 11.3667 5.54854 11.2617 5.28411 11.2617C5.01969 11.2617 4.76609 11.3667 4.57911 11.5537C4.39214 11.7407 4.28709 11.9943 4.28709 12.2587C4.28709 12.3896 4.31288 12.5193 4.36299 12.6403C4.41309 12.7612 4.48653 12.8711 4.57911 12.9637L8.75912 17.1437C9.14912 17.5337 9.77912 17.5337 10.1691 17.1437L19.4209 8.26589C19.6079 8.07892 19.7129 7.82532 19.7129 7.56089C19.7129 7.29647 19.6079 7.04287 19.4209 6.85589C19.2339 6.66892 18.9803 6.56387 18.7159 6.56387C18.4515 6.56387 18.1979 6.66892 18.0109 6.85589L9.45912 15.0237Z" fill="#212123"/>
</svg>
