<svg width="16" height="16" viewBox="0 0 16 16" fill="none" xmlns="http://www.w3.org/2000/svg">
<path d="M7.99997 10.3667C8.13661 10.3668 8.27096 10.3352 8.39002 10.275C8.50908 10.2148 8.60882 10.128 8.67958 10.0231L10.8913 6.7074C10.9615 6.59952 10.999 6.47696 11 6.35199C11.0009 6.22702 10.9654 6.10401 10.8968 5.99527C10.8282 5.88653 10.729 5.79587 10.6092 5.73236C10.4893 5.66885 10.353 5.63471 10.2139 5.63337L5.78908 5.63337C5.65006 5.63425 5.51373 5.66787 5.3937 5.73087C5.27368 5.79387 5.17415 5.88405 5.10507 5.99241C5.03598 6.10076 4.99975 6.2235 5 6.34836C5.00025 6.47322 5.03696 6.59584 5.10648 6.70397L7.31983 10.0218C7.39066 10.1269 7.49046 10.2139 7.60959 10.2743C7.72872 10.3347 7.86317 10.3665 7.99997 10.3667Z" fill="#212123"/>
</svg>
