<svg width="24" height="24" viewBox="0 0 24 24" fill="none" xmlns="http://www.w3.org/2000/svg">
<path d="M7.4 8.8C7.4 9.27739 7.21035 9.73523 6.87279 10.0728C6.53522 10.4104 6.07739 10.6 5.6 10.6C5.12261 10.6 4.66477 10.4104 4.32721 10.0728C3.98964 9.73523 3.8 9.27739 3.8 8.8C3.8 8.32261 3.98964 7.86477 4.32721 7.52721C4.66477 7.18964 5.12261 7 5.6 7C6.07739 7 6.53522 7.18964 6.87279 7.52721C7.21035 7.86477 7.4 8.32261 7.4 8.8ZM7.4 15.2C7.4 15.6774 7.21035 16.1352 6.87279 16.4728C6.53522 16.8104 6.07739 17 5.6 17C5.12261 17 4.66477 16.8104 4.32721 16.4728C3.98964 16.1352 3.8 15.6774 3.8 15.2C3.8 14.7226 3.98964 14.2648 4.32721 13.9272C4.66477 13.5896 5.12261 13.4 5.6 13.4C6.07739 13.4 6.53522 13.5896 6.87279 13.9272C7.21035 14.2648 7.4 14.7226 7.4 15.2ZM13.8 8.8C13.8 9.27739 13.6104 9.73523 13.2728 10.0728C12.9352 10.4104 12.4774 10.6 12 10.6C11.5226 10.6 11.0648 10.4104 10.7272 10.0728C10.3896 9.73523 10.2 9.27739 10.2 8.8C10.2 8.32261 10.3896 7.86477 10.7272 7.52721C11.0648 7.18964 11.5226 7 12 7C12.4774 7 12.9352 7.18964 13.2728 7.52721C13.6104 7.86477 13.8 8.32261 13.8 8.8ZM13.8 15.2C13.8 15.6774 13.6104 16.1352 13.2728 16.4728C12.9352 16.8104 12.4774 17 12 17C11.5226 17 11.0648 16.8104 10.7272 16.4728C10.3896 16.1352 10.2 15.6774 10.2 15.2C10.2 14.7226 10.3896 14.2648 10.7272 13.9272C11.0648 13.5896 11.5226 13.4 12 13.4C12.4774 13.4 12.9352 13.5896 13.2728 13.9272C13.6104 14.2648 13.8 14.7226 13.8 15.2ZM20.2 8.8C20.2 9.03638 20.1534 9.27044 20.063 9.48883C19.9725 9.70722 19.8399 9.90565 19.6728 10.0728C19.5056 10.2399 19.3072 10.3725 19.0888 10.463C18.8704 10.5534 18.6364 10.6 18.4 10.6C18.1636 10.6 17.9296 10.5534 17.7112 10.463C17.4928 10.3725 17.2944 10.2399 17.1272 10.0728C16.9601 9.90565 16.8275 9.70722 16.737 9.48883C16.6466 9.27044 16.6 9.03638 16.6 8.8C16.6 8.32261 16.7896 7.86477 17.1272 7.52721C17.4648 7.18964 17.9226 7 18.4 7C18.8774 7 19.3352 7.18964 19.6728 7.52721C20.0104 7.86477 20.2 8.32261 20.2 8.8ZM20.2 15.2C20.2 15.4364 20.1534 15.6704 20.063 15.8888C19.9725 16.1072 19.8399 16.3056 19.6728 16.4728C19.5056 16.6399 19.3072 16.7725 19.0888 16.863C18.8704 16.9534 18.6364 17 18.4 17C18.1636 17 17.9296 16.9534 17.7112 16.863C17.4928 16.7725 17.2944 16.6399 17.1272 16.4728C16.9601 16.3056 16.8275 16.1072 16.737 15.8888C16.6466 15.6704 16.6 15.4364 16.6 15.2C16.6 14.7226 16.7896 14.2648 17.1272 13.9272C17.4648 13.5896 17.9226 13.4 18.4 13.4C18.8774 13.4 19.3352 13.5896 19.6728 13.9272C20.0104 14.2648 20.2 14.7226 20.2 15.2Z" fill="#212123"/>
</svg>
