<svg width="24" height="24" viewBox="0 0 24 24" fill="none" xmlns="http://www.w3.org/2000/svg">
<path d="M11.5673 4.61541H5.48718C5.02645 4.61541 4.58459 4.79843 4.25881 5.12422C3.93302 5.45 3.75 5.89186 3.75 6.35259V18.5128C3.75 18.9736 3.93302 19.4154 4.25881 19.7412C4.58459 20.067 5.02645 20.25 5.48718 20.25H17.6474C18.1082 20.25 18.55 20.067 18.8758 19.7412C19.2016 19.4154 19.3846 18.9736 19.3846 18.5128V12.4327M17.1045 4.28967C17.4501 3.94413 17.9187 3.75 18.4074 3.75C18.8961 3.75 19.3648 3.94413 19.7103 4.28967C20.0558 4.63522 20.25 5.10388 20.25 5.59256C20.25 6.08123 20.0558 6.54989 19.7103 6.89544L11.8817 14.7249C11.6755 14.931 11.4207 15.0818 11.1408 15.1635L8.64534 15.8932C8.5706 15.915 8.49138 15.9163 8.41596 15.8969C8.34054 15.8776 8.2717 15.8384 8.21665 15.7833C8.1616 15.7283 8.12236 15.6594 8.10303 15.584C8.08371 15.5086 8.08502 15.4294 8.10682 15.3546L8.83643 12.8592C8.91854 12.5795 9.06968 12.325 9.27594 12.1191L17.1045 4.28967Z" stroke="#212123" stroke-width="1.5" stroke-linecap="round" stroke-linejoin="round"/>
</svg>
