<svg width="40" height="40" viewBox="0 0 40 40" fill="none" xmlns="http://www.w3.org/2000/svg">
  <path
    fill-rule="evenodd"
    clip-rule="evenodd"
    d="M17.2797 5.0001C10.4978 5.0001 5 10.4979 5 17.2798C5 24.0618 10.4978 29.5596 17.2797 29.5596C20.1667 29.5596 22.821 28.5633 24.9175 26.8958L32.6118 34.5901C33.1582 35.1365 34.044 35.1365 34.5904 34.5901C35.1368 34.0437 35.1368 33.158 34.5904 32.6116L26.8958 24.9173C28.5633 22.8208 29.5596 20.1665 29.5596 17.2798C29.5596 10.4979 24.0617 5.0001 17.2797 5.0001ZM7.7979 17.2798C7.7979 12.0432 12.043 7.79802 17.2797 7.79802C22.5163 7.79802 26.7615 12.0432 26.7615 17.2798C26.7615 22.5165 22.5163 26.7617 17.2797 26.7617C12.043 26.7617 7.7979 22.5165 7.7979 17.2798Z"
    fill="#BDBDC0"
  />
</svg>
