<svg width="24" height="24" viewBox="0 0 24 24" fill="none" xmlns="http://www.w3.org/2000/svg">
<path fill-rule="evenodd" clip-rule="evenodd" d="M12 3C7.032 3 3 6.33854 3 10.4446C3 13.006 4.557 15.2413 6.933 16.6036L5.934 20.5082C5.91515 20.5858 5.91903 20.6678 5.94512 20.743C5.97121 20.8183 6.01825 20.8832 6.07995 20.9291C6.14165 20.9751 6.21505 20.9998 6.29031 21C6.36557 21.0002 6.43908 20.9759 6.501 20.9303L10.875 17.8316C11.244 17.8316 11.622 17.8987 12 17.8987C16.968 17.8987 21 14.5602 21 10.4446C21 6.32895 16.968 3 12 3Z" fill="#171719"/>
</svg>
