<svg width="16" height="16" viewBox="0 0 16 16" fill="none" xmlns="http://www.w3.org/2000/svg">
<path d="M11.3333 4.66667V7.33333M8 4.66667V10M4.66667 4.66667V8.66667M2 6.26667C2 4.77333 2 4.02667 2.29067 3.456C2.54633 2.95426 2.95426 2.54633 3.456 2.29067C4.02667 2 4.77333 2 6.26667 2H9.73333C11.2267 2 11.9733 2 12.544 2.29067C13.0457 2.54633 13.4537 2.95426 13.7093 3.456C14 4.02667 14 4.77333 14 6.26667V9.73333C14 11.2267 14 11.9733 13.7093 12.544C13.4537 13.0457 13.0457 13.4537 12.544 13.7093C11.9733 14 11.2267 14 9.73333 14H6.26667C4.77333 14 4.02667 14 3.456 13.7093C2.95426 13.4537 2.54633 13.0457 2.29067 12.544C2 11.9733 2 11.2267 2 9.73333V6.26667Z" stroke="#616164" stroke-linecap="round" stroke-linejoin="round"/>
</svg>
