<svg width="24" height="24" viewBox="0 0 24 24" fill="none" xmlns="http://www.w3.org/2000/svg">
<path d="M17.1265 4.91741C15.7669 3.52964 13.9228 2.75 12 2.75C10.0772 2.75 8.23311 3.52964 6.87348 4.91741C5.51384 6.30518 4.75 8.1874 4.75 10.15C4.75 16.1625 12 21.25 12 21.25C12 21.25 19.25 16.1625 19.25 10.15C19.25 8.1874 18.4862 6.30518 17.1265 4.91741Z" stroke="#212123" stroke-width="1.5"/>
<path d="M19.25 10.15C19.25 16.1625 12 21.25 12 21.25C12 21.25 4.75 16.1625 4.75 10.15C4.75 8.1874 5.51384 6.30518 6.87348 4.91741C8.23311 3.52964 10.0772 2.75 12 2.75C13.9228 2.75 15.7669 3.52964 17.1265 4.91741C18.4862 6.30518 19.25 8.1874 19.25 10.15Z" stroke="#212123" stroke-width="1.5"/>
<path d="M14.7188 10.15C14.7188 10.886 14.4323 11.5918 13.9224 12.1122C13.4126 12.6326 12.7211 12.925 12 12.925C11.2789 12.925 10.5874 12.6326 10.0776 12.1122C9.56769 11.5918 9.28125 10.886 9.28125 10.15C9.28125 9.41402 9.56769 8.70819 10.0776 8.18778C10.5874 7.66737 11.2789 7.375 12 7.375C12.7211 7.375 13.4126 7.66737 13.9224 8.18778C14.4323 8.70819 14.7188 9.41402 14.7188 10.15Z" stroke="#212123" stroke-width="1.5"/>
</svg>
