<svg width="24" height="24" viewBox="0 0 24 24" fill="none" xmlns="http://www.w3.org/2000/svg">
<path d="M7.55064 7.27023C7.55064 4.91185 9.54273 3 12.0001 3C14.4574 3 16.4495 4.91185 16.4495 7.27023C16.4495 9.62861 14.4574 11.5405 12.0001 11.5405C9.54273 11.5405 7.55064 9.62861 7.55064 7.27023Z" fill="#212123"/>
<path d="M12 13.4292C9.66208 13.4292 7.4804 13.8684 5.84798 14.7123C4.21673 15.5556 3.00001 16.8902 3.00001 18.6699L3 18.9879C2.99997 19.1691 2.99994 19.3535 3.01336 19.5112C3.02829 19.6866 3.06427 19.9042 3.18188 20.1257C3.34186 20.427 3.59713 20.672 3.91111 20.8255C4.14192 20.9384 4.36869 20.9729 4.55145 20.9872C4.71572 21.0001 4.90788 21 5.09664 21L18.9036 20.9992C19.0923 20.9992 19.2845 20.9993 19.4487 20.9864C19.6315 20.972 19.8582 20.9375 20.089 20.8246C20.403 20.6711 20.6582 20.4261 20.8181 20.1248C20.9357 19.9033 20.9717 19.6857 20.9866 19.5103C21.0001 19.3527 21 19.1683 21 18.9871L21 18.6699C21 16.8902 19.7833 15.5556 18.152 14.7123C16.5196 13.8684 14.3379 13.4292 12 13.4292Z" fill="#212123"/>
</svg>
