<svg width="18" height="18" viewBox="0 0 18 18" fill="none" xmlns="http://www.w3.org/2000/svg">
<path fill-rule="evenodd" clip-rule="evenodd" d="M7.79683 2.36572C4.79724 2.36572 2.3656 4.79738 2.3656 7.79697C2.3656 10.7966 4.79724 13.2282 7.79683 13.2282C9.07372 13.2282 10.2477 12.7876 11.175 12.0501L14.5781 15.4532C14.8198 15.6949 15.2115 15.6949 15.4532 15.4532C15.6948 15.2116 15.6948 14.8198 15.4532 14.5782L12.05 11.175C12.7875 10.2477 13.2281 9.0738 13.2281 7.79697C13.2281 4.79738 10.7964 2.36572 7.79683 2.36572ZM3.6031 7.79697C3.6031 5.48083 5.48069 3.60322 7.79683 3.60322C10.113 3.60322 11.9906 5.48083 11.9906 7.79697C11.9906 10.1131 10.113 11.9907 7.79683 11.9907C5.48069 11.9907 3.6031 10.1131 3.6031 7.79697Z" fill="#212123"/>
</svg>
