<svg width="20" height="20" viewBox="0 0 20 20" fill="none" xmlns="http://www.w3.org/2000/svg">
<path d="M9.56664 2.91569C9.60189 2.82971 9.66191 2.75617 9.73907 2.7044C9.81624 2.65264 9.90706 2.625 9.99997 2.625C10.0929 2.625 10.1837 2.65264 10.2609 2.7044C10.338 2.75617 10.3981 2.82971 10.4333 2.91569L12.2041 7.17485C12.2371 7.25471 12.2915 7.32387 12.3614 7.37463C12.4312 7.42539 12.5139 7.45576 12.6 7.46235L17.1983 7.83069C17.6141 7.86402 17.7825 8.38319 17.4658 8.65402L13.9625 11.6557C13.8968 11.7115 13.8479 11.7844 13.8211 11.8663C13.7943 11.9483 13.7908 12.036 13.8108 12.1199L14.8816 16.6074C14.9032 16.6974 14.8975 16.7918 14.8654 16.8786C14.8333 16.9654 14.7762 17.0408 14.7013 17.0952C14.6264 17.1496 14.5371 17.1806 14.4446 17.1842C14.3521 17.1879 14.2606 17.164 14.1816 17.1157L10.2441 14.7115C10.1707 14.6664 10.0862 14.6425 9.99997 14.6425C9.91378 14.6425 9.82926 14.6664 9.75581 14.7115L5.81831 17.1165C5.73935 17.1648 5.64785 17.1887 5.55535 17.185C5.46286 17.1814 5.37352 17.1504 5.29861 17.096C5.22371 17.0416 5.16661 16.9663 5.13452 16.8794C5.10243 16.7926 5.09678 16.6982 5.11831 16.6082L6.18914 12.1199C6.20919 12.036 6.20563 11.9483 6.17886 11.8663C6.15209 11.7844 6.10315 11.7115 6.03747 11.6557L2.53414 8.65402C2.46359 8.59388 2.41248 8.51416 2.38727 8.42495C2.36207 8.33574 2.3639 8.24106 2.39255 8.15289C2.42119 8.06473 2.47536 7.98705 2.54818 7.92969C2.62101 7.87233 2.70922 7.83788 2.80164 7.83069L7.39997 7.46235C7.4861 7.45576 7.5687 7.42539 7.63858 7.37463C7.70847 7.32387 7.7629 7.25471 7.79581 7.17485L9.56664 2.91569Z" stroke="#F1E44C" stroke-width="1.5" stroke-linecap="round" stroke-linejoin="round"/>
</svg>
