<svg width="24" height="24" viewBox="0 0 24 24" fill="none" xmlns="http://www.w3.org/2000/svg">
<path d="M10.1667 11.125V16.375M13.8333 11.125V16.375M18.4167 6.75V19C18.4167 19.4641 18.2235 19.9092 17.8797 20.2374C17.5359 20.5656 17.0696 20.75 16.5833 20.75H7.41667C6.93044 20.75 6.46412 20.5656 6.1203 20.2374C5.77649 19.9092 5.58333 19.4641 5.58333 19V6.75M3.75 6.75H20.25M8.33333 6.75V5C8.33333 4.53587 8.52649 4.09075 8.8703 3.76256C9.21412 3.43437 9.68044 3.25 10.1667 3.25H13.8333C14.3196 3.25 14.7859 3.43437 15.1297 3.76256C15.4735 4.09075 15.6667 4.53587 15.6667 5V6.75" stroke="#212123" stroke-width="1.5" stroke-linecap="round" stroke-linejoin="round"/>
</svg>
