<svg width="24" height="24" viewBox="0 0 24 24" fill="none" xmlns="http://www.w3.org/2000/svg">
<path d="M12 8.45001C11.7951 8.44985 11.5936 8.49721 11.415 8.58751C11.2364 8.67782 11.0868 8.80801 10.9806 8.96547L7.66307 13.939C7.55769 14.1008 7.50147 14.2846 7.50003 14.4721C7.49859 14.6595 7.55197 14.844 7.65485 15.0072C7.75773 15.1703 7.90649 15.3063 8.08626 15.4015C8.26602 15.4968 8.47049 15.548 8.6792 15.55H15.3164C15.5249 15.5487 15.7294 15.4983 15.9094 15.4038C16.0895 15.3093 16.2388 15.174 16.3424 15.0114C16.446 14.8489 16.5004 14.6648 16.5 14.4775C16.4996 14.2902 16.4446 14.1063 16.3403 13.9441L13.0203 8.96731C12.914 8.80964 12.7643 8.67921 12.5856 8.58861C12.4069 8.498 12.2052 8.45027 12 8.45001Z" fill="#212123"/>
</svg>
