<svg width="24" height="24" viewBox="0 0 24 24" fill="none" xmlns="http://www.w3.org/2000/svg">
<path d="M12 15.55C12.2049 15.5502 12.4064 15.5028 12.585 15.4125C12.7636 15.3222 12.9132 15.192 13.0194 15.0345L16.3369 10.061C16.4423 9.89922 16.4985 9.71538 16.5 9.52793C16.5014 9.34047 16.448 9.15595 16.3451 8.99284C16.2423 8.82973 16.0935 8.69374 15.9137 8.59847C15.734 8.50321 15.5295 8.45201 15.3208 8.44999L8.68362 8.44999C8.47509 8.45131 8.2706 8.50174 8.09056 8.59624C7.91051 8.69075 7.76123 8.82602 7.6576 8.98855C7.55397 9.15108 7.49963 9.33518 7.5 9.52247C7.50037 9.70977 7.55545 9.89369 7.65972 10.0559L10.9797 15.0327C11.086 15.1904 11.2357 15.3208 11.4144 15.4114C11.5931 15.502 11.7948 15.5497 12 15.55Z" fill="#212123"/>
</svg>
