<svg width="113" height="20" viewBox="0 0 113 20" fill="none" xmlns="http://www.w3.org/2000/svg">
<path d="M16.2338 7.40514H8.90239C8.46856 7.40514 8.11688 7.75808 8.11688 8.19346C8.11688 8.62883 8.46856 8.98178 8.90239 8.98178H16.2338V16.3394H8.11688C3.63408 16.3394 0 12.6923 0 8.19346C0 3.69458 3.63408 0.0475154 8.11688 0.0474807H16.2338V7.40514Z" fill="#212123"/>
<path d="M18.3284 15.0256C18.3284 14.2999 18.9146 13.7117 19.6376 13.7117C20.3607 13.7117 20.9468 14.2999 20.9468 15.0256C20.9468 15.7512 20.3607 16.3394 19.6376 16.3394C18.9146 16.3394 18.3284 15.7512 18.3284 15.0256Z" fill="#4864F1"/>
<path d="M32.7713 16.1039C30.3759 16.1039 28.4639 15.3752 27.0353 13.9177C25.5923 12.4747 24.8708 10.5195 24.8708 8.05195C24.8708 5.58442 25.5779 3.62193 26.992 2.1645C28.3917 0.721501 30.3182 0 32.7713 0C34.7482 0 36.4365 0.53391 37.8362 1.60173C39.207 2.68398 40.0368 4.17749 40.3254 6.08225H35.9531C35.7511 5.31746 35.3687 4.73305 34.8059 4.329C34.2431 3.91053 33.5649 3.7013 32.7713 3.7013C31.6601 3.7013 30.816 4.07648 30.2388 4.82684C29.6616 5.5772 29.373 6.65224 29.373 8.05195C29.373 9.45166 29.6616 10.5267 30.2388 11.2771C30.816 12.0274 31.6601 12.4026 32.7713 12.4026C33.6371 12.4026 34.3513 12.1717 34.9141 11.71C35.4913 11.2338 35.8593 10.57 36.018 9.71861H40.347C40.1017 11.7388 39.2936 13.3045 37.9228 14.4156C36.5375 15.5411 34.8203 16.1039 32.7713 16.1039Z" fill="#212123"/>
<path d="M48.4423 4.329C49.5967 4.329 50.5274 4.69697 51.2345 5.4329C51.9416 6.1544 52.2951 7.18615 52.2951 8.52814V15.7576H48.3124V9.37229C48.3124 8.26118 47.8074 7.70563 46.7973 7.70563C46.2922 7.70563 45.8737 7.87157 45.5418 8.20346C45.21 8.52092 45.044 8.97547 45.044 9.5671V15.7576H41.0613V0.346321H45.044V5.95238C45.9387 4.87013 47.0714 4.329 48.4423 4.329Z" fill="#212123"/>
<path d="M66.1124 7.64069L66.9566 4.58874H71.2206L67.6059 15.7576H63.4068L62.3245 11.9048C62.0648 10.9957 61.8267 10.0866 61.6102 9.17749C61.3649 10.2597 61.1341 11.1688 60.9176 11.9048L59.8354 15.7576H55.6362L52.0215 4.58874H56.2856L57.1297 7.64069C57.4328 8.73737 57.7574 9.96392 58.1038 11.3203C58.3779 10.0938 58.681 8.86003 59.0128 7.61905L59.8137 4.58874H63.4284L64.2293 7.61905C64.5468 8.86003 64.8498 10.0938 65.1384 11.3203C65.4847 9.96392 65.8094 8.73737 66.1124 7.64069Z" fill="#212123"/>
<path d="M75.2673 3.4632H71.5227V0.346321H75.2673V3.4632ZM75.3755 15.7576H71.3928V4.58874H75.3755V15.7576Z" fill="#212123"/>
<path d="M83.8991 4.329C85.0535 4.329 85.9842 4.69697 86.6913 5.4329C87.3984 6.1544 87.7519 7.18615 87.7519 8.52814V15.7576H83.7692V9.37229C83.7692 8.26118 83.2642 7.70563 82.2541 7.70563C81.749 7.70563 81.3306 7.87157 80.9987 8.20346C80.6668 8.52092 80.5008 8.97547 80.5008 9.5671V15.7576H76.5181V0.346321H80.5008V5.95238C81.3955 4.87013 82.5282 4.329 83.8991 4.329Z" fill="#212123"/>
<path d="M100.301 15.7576H96.2963C96.1376 15.4113 96.0438 15.0289 96.0149 14.6104C95.2501 15.5483 94.0669 16.0173 92.4651 16.0173C91.2386 16.0173 90.2429 15.7071 89.4781 15.0866C88.7278 14.4661 88.3526 13.6147 88.3526 12.5325C88.3526 11.4791 88.7061 10.671 89.4132 10.1082C90.1202 9.53102 91.253 9.17749 92.8115 9.04762L94.608 8.8961C95.0842 8.85281 95.4233 8.75902 95.6253 8.61472C95.8418 8.47042 95.95 8.25397 95.95 7.96537C95.95 7.37374 95.481 7.07792 94.5431 7.07792C93.9659 7.07792 93.5546 7.1645 93.3093 7.33766C93.0784 7.49639 92.9341 7.80664 92.8764 8.2684H88.937C89.038 6.94084 89.5431 5.95238 90.4521 5.30303C91.3757 4.65368 92.7537 4.329 94.5863 4.329C98.0928 4.329 99.8461 5.49784 99.8461 7.8355V13.7446C99.8461 14.6825 99.9976 15.3535 100.301 15.7576ZM93.8288 13.4632C95.2429 13.4632 95.95 12.7633 95.95 11.3636V10.7143C95.7913 10.9307 95.4594 11.075 94.9543 11.1472L93.6772 11.2771C92.8259 11.3636 92.4002 11.7316 92.4002 12.381C92.4002 12.7128 92.5229 12.9798 92.7682 13.1818C93.0279 13.3694 93.3814 13.4632 93.8288 13.4632Z" fill="#212123"/>
<path d="M107.882 4.329C109.354 4.329 110.516 4.8557 111.367 5.90909C112.218 6.96248 112.644 8.38384 112.644 10.1732C112.644 11.9625 112.218 13.3838 111.367 14.4372C110.516 15.4906 109.354 16.0173 107.882 16.0173C106.54 16.0173 105.508 15.5267 104.787 14.5455V20H100.804V4.58874H104.679V5.97403C105.386 4.87735 106.454 4.329 107.882 4.329ZM106.692 7.44589C105.393 7.44589 104.744 8.35498 104.744 10.1732C104.744 11.9913 105.393 12.9004 106.692 12.9004C107.99 12.9004 108.64 11.9625 108.64 10.0866C108.64 8.32612 107.99 7.44589 106.692 7.44589Z" fill="#212123"/>
</svg>
